<?xml version="1.0" encoding="utf-8"?>
<!-- Generator: Adobe Illustrator 16.0.0, SVG Export Plug-In . SVG Version: 6.00 Build 0)  -->
<!DOCTYPE svg PUBLIC "-//W3C//DTD SVG 1.1//EN" "http://www.w3.org/Graphics/SVG/1.1/DTD/svg11.dtd">
<svg version="1.1" id="Layer_1" xmlns="http://www.w3.org/2000/svg" xmlns:xlink="http://www.w3.org/1999/xlink" x="0px" y="0px"
	 width="512px" height="512px" viewBox="0 0 512 512" enable-background="new 0 0 512 512" xml:space="preserve">
<g id="file_x5F_pen_x5F_write_1_">
	<rect x="228" y="108" fill="#333333" width="158" height="15"/>
	<rect x="228" y="153" fill="#333333" width="158" height="15"/>
	<polygon fill="#333333" points="386,211.758 386,198 124,198 124,213 385.12,213 	"/>
	<path fill="#CD1619" d="M263.761,415.602c-0.616,0.887-1.327,2.397-1.769,4.164l-16.647,66.859
		c-2.063,8.247,2.205,11.225,9.413,6.718l58.369-36.35c1.544-0.965,2.79-2.148,3.443-3.008L263.761,415.602z"/>
	<path fill="#CD1619" d="M342.947,328.689c-5.267,7.244-14.125,10.246-21.91,8.095l-49.66,68.325l52.435,38.11l135.292-186.144
		l-41.947-30.488L342.947,328.689z"/>
	<polygon fill="#333333" points="353.964,243 124,243 124,258 343.061,258 	"/>
	<polygon fill="#333333" points="321.257,288 124,288 124,303 310.354,303 	"/>
	<polygon fill="#333333" points="305.243,333 124,333 124,348 294.341,348 	"/>
	<polygon fill="#333333" points="260.189,394.461 260.439,394.643 268.902,383 124,383 124,398 257.729,398 	"/>
	<path fill="#333333" d="M230.794,482.984l0.992-3.984H109.502C101.534,479,94,470.981,94,462.5V137h73.832
		C183.957,137,198,125.048,198,108.834V33h203.501C410.038,33,416,38.552,416,46.501v129.906c0.903,0.09,1.796,0.23,2.673,0.428
		l5.405-7.437c1.922-2.644,4.275-4.897,6.922-6.706V46.5c0-16.501-12.999-28.5-29.499-28.5H199.168h-0.834h-0.019
		c-6.85,0-14.148,2.165-18.304,6.191L88.064,116.06C82.5,121.123,79,128.249,79,136.499v0.834L79.001,462.5
		c0,16.5,14.001,31.5,30.501,31.5h120.592C229.627,490.94,229.716,487.292,230.794,482.984z"/>
	<path fill="#333333" d="M416,341.893V462.5c0,8.79-6.774,16.5-14.498,16.5h-95.34l-24.085,15h119.426c16.5,0,29.498-15,29.498-31.5
		V321.254L416,341.893z"/>
	<path fill="#CD1619" d="M489.132,216.68c4.347-5.981,3.01-14.43-2.97-18.777l-31.173-22.657c-5.981-4.347-14.431-3.01-18.777,2.97
		l-13.173,18.124l-5.075-3.688c-3.189-2.318-7.697-1.605-10.014,1.584l-86.412,118.892c-2.318,3.19-1.769,7.578,1.222,9.751
		s7.334,1.342,9.653-1.847l78.509-108.018c1.583-2.177,4.186-3.199,6.693-2.891l49.917,36.28L489.132,216.68z"/>
</g>
</svg>
